<svg width="6919" height="1670" viewBox="0 0 6919 1670" version="1.1" xmlns="http://www.w3.org/2000/svg" xmlns:xlink="http://www.w3.org/1999/xlink">
<title>Frame</title>
<desc>Created using Figma</desc>
<g id="Canvas" transform="translate(1745 1153)">
<clipPath id="clip-0" clip-rule="evenodd">
<path d="M -1745 -1153L 5174 -1153L 5174 517L -1745 517L -1745 -1153Z" fill="#FFFFFF"/>
</clipPath>
<g id="Frame" clip-path="url(#clip-0)">
<path d="M -1745 -1153L 5174 -1153L 5174 517L -1745 517L -1745 -1153Z" fill="#FFFFFF"/>
<g id="Group">
<g id="Group">
<g id="Union">
<use xlink:href="#path0_fill" transform="matrix(0.707107 -0.707107 0.707107 0.707107 -1745 -819.246)" fill="#EC0000"/>
</g>
<g id="Union">
<use xlink:href="#path1_fill" transform="matrix(0.707107 -0.707107 0.707107 0.707107 -1745 -318.246)" fill="#EC0000"/>
</g>
<g id="Union">
<use xlink:href="#path2_fill" transform="matrix(0.707107 -0.707107 0.707107 0.707107 -1745 182.754)" fill="#EC0000"/>
</g>
</g>
<g id="City of Amsterdam">
<use xlink:href="#path3_fill" transform="translate(-1013 -1127)" fill="#EC0000"/>
</g>
</g>
<g id="Open Source">
<use xlink:href="#path4_fill" transform="translate(2130 -1127)"/>
</g>
</g>
</g>
<defs>
<path id="path0_fill" fill-rule="evenodd" d="M 295.5 0L 176.5 0L 176.5 176.5L 0 176.5L 0 295.5L 176.5 295.5L 176.5 472L 295.5 472L 295.5 295.5L 472 295.5L 472 176.5L 295.5 176.5L 295.5 0Z"/>
<path id="path1_fill" fill-rule="evenodd" d="M 295.5 0L 176.5 0L 176.5 176.5L 0 176.5L 4.31584e-05 295.5L 176.5 295.5L 176.5 472L 295.5 472L 295.5 295.5L 472 295.5L 472 176.5L 295.5 176.5L 295.5 0Z"/>
<path id="path2_fill" fill-rule="evenodd" d="M 0 176.5L 4.31584e-05 295.5L 176.5 295.5L 176.5 472L 295.5 472L 295.5 295.5L 472 295.5L 472 176.5L 295.5 176.5L 295.5 3.23688e-05L 176.5 0L 176.5 176.5L 0 176.5Z"/>
<path id="path3_fill" d="M 270.07 218.924C 257.642 205.54 245.533 196.617 233.742 192.156C 222.27 187.695 210.639 185.464 198.848 185.464C 181.321 185.464 165.388 188.651 151.048 195.024C 137.027 201.079 124.917 209.683 114.72 220.836C 104.523 231.671 96.556 244.417 90.82 259.076C 85.4027 273.735 82.694 289.509 82.694 306.398C 82.694 324.562 85.4027 341.292 90.82 356.588C 96.556 371.884 104.523 385.109 114.72 396.262C 124.917 407.415 137.027 416.179 151.048 422.552C 165.388 428.925 181.321 432.112 198.848 432.112C 212.551 432.112 225.775 428.925 238.522 422.552C 251.587 415.86 263.697 405.344 274.85 391.004L 324.562 426.376C 309.266 447.408 290.624 462.704 268.636 472.264C 246.648 481.824 223.226 486.604 198.37 486.604C 172.239 486.604 148.18 482.461 126.192 474.176C 104.523 465.572 85.7213 453.622 69.788 438.326C 54.1733 422.711 41.9047 404.069 32.982 382.4C 24.0593 360.731 19.598 336.671 19.598 310.222C 19.598 283.135 24.0593 258.598 32.982 236.61C 41.9047 214.303 54.1733 195.343 69.788 179.728C 85.7213 164.113 104.523 152.163 126.192 143.878C 148.18 135.274 172.239 130.972 198.37 130.972C 221.314 130.972 242.505 135.115 261.944 143.4C 281.701 151.367 300.025 165.069 316.914 184.508L 270.07 218.924ZM 360.685 248.56L 418.045 248.56L 418.045 478L 360.685 478L 360.685 248.56ZM 352.559 170.646C 352.559 161.405 355.905 153.438 362.597 146.746C 369.607 139.735 378.371 136.23 388.887 136.23C 399.403 136.23 408.166 139.576 415.177 146.268C 422.506 152.641 426.171 160.767 426.171 170.646C 426.171 180.525 422.506 188.81 415.177 195.502C 408.166 201.875 399.403 205.062 388.887 205.062C 378.371 205.062 369.607 201.716 362.597 195.024C 355.905 188.013 352.559 179.887 352.559 170.646ZM 457.129 297.316L 457.129 248.56L 504.451 248.56L 504.451 182.118L 561.811 182.118L 561.811 248.56L 624.907 248.56L 624.907 297.316L 561.811 297.316L 561.811 397.696C 561.811 409.168 563.882 418.25 568.025 424.942C 572.486 431.634 581.09 434.98 593.837 434.98C 598.935 434.98 604.512 434.502 610.567 433.546C 616.621 432.271 621.401 430.359 624.907 427.81L 624.907 476.088C 618.852 478.956 611.363 480.868 602.441 481.824C 593.837 483.099 586.189 483.736 579.497 483.736C 564.201 483.736 551.613 481.983 541.735 478.478C 532.175 475.291 524.527 470.352 518.791 463.66C 513.373 456.649 509.549 448.045 507.319 437.848C 505.407 427.651 504.451 415.86 504.451 402.476L 504.451 297.316L 457.129 297.316ZM 643.392 248.56L 706.488 248.56L 770.54 407.734L 771.496 407.734L 828.856 248.56L 888.606 248.56L 780.1 527.234C 775.957 538.069 771.336 547.469 766.238 555.436C 761.458 563.721 755.722 570.573 749.03 575.99C 742.338 581.726 734.371 585.869 725.13 588.418C 716.207 591.286 705.372 592.72 692.626 592.72C 677.648 592.72 662.99 590.808 648.65 586.984L 655.82 535.36C 660.281 536.953 664.902 538.228 669.682 539.184C 674.78 540.459 679.879 541.096 684.978 541.096C 691.988 541.096 697.884 540.459 702.664 539.184C 707.444 537.909 711.427 535.838 714.614 532.97C 718.119 530.421 720.987 526.915 723.218 522.454C 725.448 518.311 727.838 513.213 730.388 507.158L 741.382 479.912L 643.392 248.56ZM 980.598 363.28C 980.598 345.116 983.785 328.705 990.158 314.046C 996.85 299.069 1005.77 286.322 1016.93 275.806C 1028.08 265.29 1041.3 257.164 1056.6 251.428C 1071.9 245.692 1088.15 242.824 1105.36 242.824C 1122.56 242.824 1138.82 245.692 1154.11 251.428C 1169.41 257.164 1182.63 265.29 1193.79 275.806C 1204.94 286.322 1213.7 299.069 1220.08 314.046C 1226.77 328.705 1230.11 345.116 1230.11 363.28C 1230.11 381.444 1226.77 398.015 1220.08 412.992C 1213.7 427.651 1204.94 440.238 1193.79 450.754C 1182.63 461.27 1169.41 469.396 1154.11 475.132C 1138.82 480.868 1122.56 483.736 1105.36 483.736C 1088.15 483.736 1071.9 480.868 1056.6 475.132C 1041.3 469.396 1028.08 461.27 1016.93 450.754C 1005.77 440.238 996.85 427.651 990.158 412.992C 983.785 398.015 980.598 381.444 980.598 363.28ZM 1037.96 363.28C 1037.96 372.203 1039.39 380.807 1042.26 389.092C 1045.45 397.377 1049.91 404.707 1055.64 411.08C 1061.7 417.453 1068.87 422.552 1077.15 426.376C 1085.44 430.2 1094.84 432.112 1105.36 432.112C 1115.87 432.112 1125.27 430.2 1133.56 426.376C 1141.84 422.552 1148.85 417.453 1154.59 411.08C 1160.65 404.707 1165.11 397.377 1167.97 389.092C 1171.16 380.807 1172.75 372.203 1172.75 363.28C 1172.75 354.357 1171.16 345.753 1167.97 337.468C 1165.11 329.183 1160.65 321.853 1154.59 315.48C 1148.85 309.107 1141.84 304.008 1133.56 300.184C 1125.27 296.36 1115.87 294.448 1105.36 294.448C 1094.84 294.448 1085.44 296.36 1077.15 300.184C 1068.87 304.008 1061.7 309.107 1055.64 315.48C 1049.91 321.853 1045.45 329.183 1042.26 337.468C 1039.39 345.753 1037.96 354.357 1037.96 363.28ZM 1294.81 297.316L 1247.49 297.316L 1247.49 248.56L 1294.81 248.56L 1294.81 216.056C 1294.81 200.123 1295.93 185.783 1298.16 173.036C 1300.39 159.971 1304.53 148.817 1310.59 139.576C 1316.96 130.335 1325.72 123.324 1336.88 118.544C 1348.03 113.445 1362.53 110.896 1380.37 110.896C 1393.44 110.896 1405.55 112.011 1416.7 114.242L 1412.88 162.998C 1408.74 162.042 1404.75 161.245 1400.93 160.608C 1397.1 159.971 1393.12 159.652 1388.98 159.652C 1381.01 159.652 1374.64 160.927 1369.86 163.476C 1365.08 166.025 1361.25 169.531 1358.39 173.992C 1355.84 178.135 1354.08 183.074 1353.13 188.81C 1352.49 194.546 1352.17 200.601 1352.17 206.974L 1352.17 248.56L 1405.23 248.56L 1405.23 297.316L 1352.17 297.316L 1352.17 478L 1294.81 478L 1294.81 297.316ZM 147.224 639.576L 199.326 639.576L 345.116 978L 276.284 978L 244.736 900.564L 97.99 900.564L 67.398 978L 0 978L 147.224 639.576ZM 223.704 848.94L 171.602 711.276L 118.544 848.94L 223.704 848.94ZM 375.077 748.56L 429.569 748.56L 429.569 784.41L 430.525 784.41C 435.624 773.575 443.75 764.015 454.903 755.73C 466.375 747.126 481.671 742.824 500.791 742.824C 536.8 742.824 560.7 757.005 572.491 785.366C 580.776 770.707 591.133 760.032 603.561 753.34C 615.989 746.329 630.807 742.824 648.015 742.824C 663.311 742.824 676.217 745.373 686.733 750.472C 697.249 755.571 705.694 762.581 712.067 771.504C 718.759 780.427 723.539 790.943 726.407 803.052C 729.275 814.843 730.709 827.589 730.709 841.292L 730.709 978L 673.349 978L 673.349 847.984C 673.349 840.973 672.712 834.281 671.437 827.908C 670.162 821.216 667.932 815.48 664.745 810.7C 661.558 805.601 657.256 801.618 651.839 798.75C 646.422 795.882 639.411 794.448 630.807 794.448C 621.884 794.448 614.236 796.201 607.863 799.706C 601.808 802.893 596.71 807.354 592.567 813.09C 588.743 818.507 585.875 824.881 583.963 832.21C 582.37 839.221 581.573 846.391 581.573 853.72L 581.573 978L 524.213 978L 524.213 841.292C 524.213 826.952 521.186 815.639 515.131 807.354C 509.076 798.75 499.038 794.448 485.017 794.448C 475.457 794.448 467.331 796.041 460.639 799.228C 454.266 802.415 448.848 806.717 444.387 812.134C 440.244 817.551 437.217 823.765 435.305 830.776C 433.393 837.787 432.437 845.116 432.437 852.764L 432.437 978L 375.077 978L 375.077 748.56ZM 915.751 812.134C 904.598 796.519 889.62 788.712 870.819 788.712C 863.171 788.712 855.682 790.624 848.353 794.448C 841.024 798.272 837.359 804.486 837.359 813.09C 837.359 820.101 840.386 825.199 846.441 828.386C 852.496 831.573 860.144 834.281 869.385 836.512C 878.626 838.743 888.505 841.133 899.021 843.682C 909.856 845.913 919.894 849.577 929.135 854.676C 938.376 859.456 946.024 866.148 952.079 874.752C 958.134 883.356 961.161 895.147 961.161 910.124C 961.161 923.827 958.134 935.458 952.079 945.018C 946.343 954.259 938.695 961.748 929.135 967.484C 919.894 973.22 909.378 977.363 897.587 979.912C 885.796 982.461 874.006 983.736 862.215 983.736C 844.37 983.736 827.958 981.187 812.981 976.088C 798.004 970.989 784.62 961.748 772.829 948.364L 811.069 912.514C 818.398 920.799 826.206 927.651 834.491 933.068C 843.095 938.167 853.452 940.716 865.561 940.716C 869.704 940.716 874.006 940.238 878.467 939.282C 882.928 938.326 887.071 936.733 890.895 934.502C 894.719 932.271 897.746 929.563 899.977 926.376C 902.526 922.871 903.801 918.887 903.801 914.426C 903.801 906.459 900.774 900.564 894.719 896.74C 888.664 892.916 881.016 889.889 871.775 887.658C 862.534 885.109 852.496 882.878 841.661 880.966C 831.145 878.735 821.266 875.389 812.025 870.928C 802.784 866.148 795.136 859.615 789.081 851.33C 783.026 843.045 779.999 831.573 779.999 816.914C 779.999 804.167 782.548 793.173 787.647 783.932C 793.064 774.372 800.075 766.565 808.679 760.51C 817.283 754.455 827.162 749.994 838.315 747.126C 849.468 744.258 860.781 742.824 872.253 742.824C 887.549 742.824 902.686 745.533 917.663 750.95C 932.64 756.049 944.75 764.971 953.991 777.718L 915.751 812.134ZM 974.227 797.316L 974.227 748.56L 1021.55 748.56L 1021.55 682.118L 1078.91 682.118L 1078.91 748.56L 1142.01 748.56L 1142.01 797.316L 1078.91 797.316L 1078.91 897.696C 1078.91 909.168 1080.98 918.25 1085.12 924.942C 1089.58 931.634 1098.19 934.98 1110.94 934.98C 1116.03 934.98 1121.61 934.502 1127.67 933.546C 1133.72 932.271 1138.5 930.359 1142.01 927.81L 1142.01 976.088C 1135.95 978.956 1128.46 980.868 1119.54 981.824C 1110.94 983.099 1103.29 983.736 1096.6 983.736C 1081.3 983.736 1068.71 981.983 1058.83 978.478C 1049.27 975.291 1041.63 970.352 1035.89 963.66C 1030.47 956.649 1026.65 948.045 1024.42 937.848C 1022.51 927.651 1021.55 915.86 1021.55 902.476L 1021.55 797.316L 974.227 797.316ZM 1232.67 883.356C 1234.58 900.564 1241.27 913.948 1252.74 923.508C 1264.22 933.068 1278.08 937.848 1294.33 937.848C 1308.67 937.848 1320.62 934.98 1330.18 929.244C 1340.06 923.189 1348.66 915.701 1355.99 906.778L 1397.1 937.848C 1383.72 954.419 1368.74 966.209 1352.17 973.22C 1335.6 980.231 1318.23 983.736 1300.07 983.736C 1282.86 983.736 1266.61 980.868 1251.31 975.132C 1236.01 969.396 1222.79 961.27 1211.64 950.754C 1200.48 940.238 1191.56 927.651 1184.87 912.992C 1178.5 898.015 1175.31 881.444 1175.31 863.28C 1175.31 845.116 1178.5 828.705 1184.87 814.046C 1191.56 799.069 1200.48 786.322 1211.64 775.806C 1222.79 765.29 1236.01 757.164 1251.31 751.428C 1266.61 745.692 1282.86 742.824 1300.07 742.824C 1316 742.824 1330.5 745.692 1343.56 751.428C 1356.95 756.845 1368.26 764.812 1377.5 775.328C 1387.06 785.844 1394.39 798.909 1399.49 814.524C 1404.91 829.82 1407.62 847.506 1407.62 867.582L 1407.62 883.356L 1232.67 883.356ZM 1350.26 840.336C 1349.94 823.447 1344.68 810.222 1334.48 800.662C 1324.29 790.783 1310.1 785.844 1291.94 785.844C 1274.73 785.844 1261.03 790.783 1250.83 800.662C 1240.95 810.541 1234.9 823.765 1232.67 840.336L 1350.26 840.336ZM 1456.48 748.56L 1513.84 748.56L 1513.84 784.888L 1514.79 784.888C 1521.17 771.504 1530.25 761.147 1542.04 753.818C 1553.83 746.489 1567.37 742.824 1582.67 742.824C 1586.17 742.824 1589.52 743.143 1592.71 743.78C 1596.21 744.417 1599.72 745.214 1603.22 746.17L 1603.22 801.618C 1598.44 800.343 1593.66 799.387 1588.88 798.75C 1584.42 797.794 1579.96 797.316 1575.5 797.316C 1562.12 797.316 1551.28 799.865 1543 804.964C 1535.03 809.744 1528.81 815.321 1524.35 821.694C 1520.21 828.067 1517.34 834.441 1515.75 840.814C 1514.47 847.187 1513.84 851.967 1513.84 855.154L 1513.84 978L 1456.48 978L 1456.48 748.56ZM 1814.34 943.584L 1813.39 943.584C 1805.1 957.605 1793.95 967.803 1779.93 974.176C 1765.91 980.549 1750.77 983.736 1734.52 983.736C 1716.67 983.736 1700.74 980.709 1686.72 974.654C 1673.01 968.281 1661.22 959.677 1651.34 948.842C 1641.47 938.007 1633.98 925.261 1628.88 910.602C 1623.78 895.943 1621.23 880.169 1621.23 863.28C 1621.23 846.391 1623.94 830.617 1629.36 815.958C 1634.77 801.299 1642.26 788.553 1651.82 777.718C 1661.7 766.883 1673.49 758.439 1687.19 752.384C 1700.9 746.011 1715.87 742.824 1732.13 742.824C 1742.96 742.824 1752.52 743.939 1760.81 746.17C 1769.09 748.401 1776.42 751.269 1782.79 754.774C 1789.17 758.279 1794.59 762.103 1799.05 766.246C 1803.51 770.07 1807.17 773.894 1810.04 777.718L 1811.47 777.718L 1811.47 616.632L 1868.83 616.632L 1868.83 978L 1814.34 978L 1814.34 943.584ZM 1678.59 863.28C 1678.59 872.203 1680.02 880.807 1682.89 889.092C 1686.08 897.377 1690.54 904.707 1696.28 911.08C 1702.33 917.453 1709.5 922.552 1717.79 926.376C 1726.07 930.2 1735.47 932.112 1745.99 932.112C 1756.5 932.112 1765.91 930.2 1774.19 926.376C 1782.48 922.552 1789.49 917.453 1795.22 911.08C 1801.28 904.707 1805.74 897.377 1808.61 889.092C 1811.79 880.807 1813.39 872.203 1813.39 863.28C 1813.39 854.357 1811.79 845.753 1808.61 837.468C 1805.74 829.183 1801.28 821.853 1795.22 815.48C 1789.49 809.107 1782.48 804.008 1774.19 800.184C 1765.91 796.36 1756.5 794.448 1745.99 794.448C 1735.47 794.448 1726.07 796.36 1717.79 800.184C 1709.5 804.008 1702.33 809.107 1696.28 815.48C 1690.54 821.853 1686.08 829.183 1682.89 837.468C 1680.02 845.753 1678.59 854.357 1678.59 863.28ZM 2077.19 946.452L 2075.75 946.452C 2067.47 959.517 2056.95 969.077 2044.2 975.132C 2031.46 980.868 2017.44 983.736 2002.14 983.736C 1991.62 983.736 1981.27 982.302 1971.07 979.434C 1961.19 976.566 1952.27 972.264 1944.3 966.528C 1936.65 960.792 1930.44 953.622 1925.66 945.018C 1920.88 936.414 1918.49 926.376 1918.49 914.904C 1918.49 902.476 1920.72 891.96 1925.18 883.356C 1929.64 874.433 1935.54 867.104 1942.87 861.368C 1950.52 855.313 1959.28 850.533 1969.16 847.028C 1979.04 843.523 1989.23 840.973 1999.75 839.38C 2010.59 837.468 2021.42 836.353 2032.25 836.034C 2043.09 835.397 2053.29 835.078 2062.85 835.078L 2077.19 835.078L 2077.19 828.864C 2077.19 814.524 2072.25 803.849 2062.37 796.838C 2052.49 789.509 2039.9 785.844 2024.61 785.844C 2012.5 785.844 2001.18 788.075 1990.67 792.536C 1980.15 796.679 1971.07 802.415 1963.42 809.744L 1933.31 779.63C 1946.06 766.565 1960.87 757.164 1977.76 751.428C 1994.97 745.692 2012.66 742.824 2030.82 742.824C 2047.07 742.824 2060.78 744.736 2071.93 748.56C 2083.08 752.065 2092.32 756.686 2099.65 762.422C 2106.98 768.158 2112.56 774.85 2116.38 782.498C 2120.53 789.827 2123.39 797.316 2124.99 804.964C 2126.9 812.612 2128.01 820.101 2128.33 827.43C 2128.65 834.441 2128.81 840.655 2128.81 846.072L 2128.81 978L 2077.19 978L 2077.19 946.452ZM 2073.84 875.23L 2061.89 875.23C 2053.92 875.23 2045 875.549 2035.12 876.186C 2025.24 876.823 2015.84 878.417 2006.92 880.966C 1998.32 883.197 1990.99 886.702 1984.93 891.482C 1978.88 895.943 1975.85 902.317 1975.85 910.602C 1975.85 916.019 1976.97 920.64 1979.2 924.464C 1981.75 927.969 1984.93 930.997 1988.76 933.546C 1992.58 936.095 1996.88 938.007 2001.66 939.282C 2006.44 940.238 2011.22 940.716 2016 940.716C 2035.76 940.716 2050.26 936.095 2059.5 926.854C 2069.06 917.294 2073.84 904.388 2073.84 888.136L 2073.84 875.23ZM 2188.13 748.56L 2242.63 748.56L 2242.63 784.41L 2243.58 784.41C 2248.68 773.575 2256.81 764.015 2267.96 755.73C 2279.43 747.126 2294.73 742.824 2313.85 742.824C 2349.86 742.824 2373.76 757.005 2385.55 785.366C 2393.83 770.707 2404.19 760.032 2416.62 753.34C 2429.05 746.329 2443.86 742.824 2461.07 742.824C 2476.37 742.824 2489.27 745.373 2499.79 750.472C 2510.31 755.571 2518.75 762.581 2525.12 771.504C 2531.82 780.427 2536.6 790.943 2539.46 803.052C 2542.33 814.843 2543.77 827.589 2543.77 841.292L 2543.77 978L 2486.41 978L 2486.41 847.984C 2486.41 840.973 2485.77 834.281 2484.49 827.908C 2483.22 821.216 2480.99 815.48 2477.8 810.7C 2474.62 805.601 2470.31 801.618 2464.9 798.75C 2459.48 795.882 2452.47 794.448 2443.86 794.448C 2434.94 794.448 2427.29 796.201 2420.92 799.706C 2414.87 802.893 2409.77 807.354 2405.62 813.09C 2401.8 818.507 2398.93 824.881 2397.02 832.21C 2395.43 839.221 2394.63 846.391 2394.63 853.72L 2394.63 978L 2337.27 978L 2337.27 841.292C 2337.27 826.952 2334.24 815.639 2328.19 807.354C 2322.13 798.75 2312.1 794.448 2298.07 794.448C 2288.51 794.448 2280.39 796.041 2273.7 799.228C 2267.32 802.415 2261.91 806.717 2257.44 812.134C 2253.3 817.551 2250.27 823.765 2248.36 830.776C 2246.45 837.787 2245.49 845.116 2245.49 852.764L 2245.49 978L 2188.13 978L 2188.13 748.56Z"/>
<path id="path4_fill" d="M 19.639 310.871C 19.639 283.728 24.1097 259.139 33.051 237.105C 41.9923 214.752 54.2867 195.751 69.934 180.104C 85.9007 164.457 104.741 152.482 126.456 144.179C 148.49 135.557 172.6 131.246 198.785 131.246C 225.29 130.927 249.559 134.918 271.593 143.221C 293.627 151.204 312.627 163.02 328.594 178.667C 344.561 194.314 357.015 213.155 365.956 235.189C 374.897 257.223 379.368 281.812 379.368 308.955C 379.368 335.46 374.897 359.569 365.956 381.284C 357.015 402.999 344.561 421.68 328.594 437.327C 312.627 452.974 293.627 465.269 271.593 474.21C 249.559 482.832 225.29 487.303 198.785 487.622C 172.6 487.622 148.49 483.471 126.456 475.168C 104.741 466.546 85.9007 454.571 69.934 439.243C 54.2867 423.596 41.9923 404.915 33.051 383.2C 24.1097 361.485 19.639 337.376 19.639 310.871ZM 82.867 307.039C 82.867 325.241 85.5813 342.006 91.01 357.334C 96.758 372.662 104.741 385.914 114.96 397.091C 125.179 408.268 137.313 417.049 151.364 423.436C 165.734 429.823 181.701 433.016 199.264 433.016C 216.827 433.016 232.794 429.823 247.164 423.436C 261.534 417.049 273.828 408.268 284.047 397.091C 294.266 385.914 302.089 372.662 307.518 357.334C 313.266 342.006 316.14 325.241 316.14 307.039C 316.14 290.114 313.266 274.307 307.518 259.618C 302.089 244.929 294.266 232.155 284.047 221.298C 273.828 210.121 261.534 201.499 247.164 195.432C 232.794 189.045 216.827 185.852 199.264 185.852C 181.701 185.852 165.734 189.045 151.364 195.432C 137.313 201.499 125.179 210.121 114.96 221.298C 104.741 232.155 96.758 244.929 91.01 259.618C 85.5813 274.307 82.867 290.114 82.867 307.039ZM 431.583 249.08L 486.189 249.08L 486.189 283.568L 487.147 283.568C 495.449 269.517 506.626 259.299 520.677 252.912C 534.727 246.525 549.896 243.332 566.182 243.332C 583.745 243.332 599.552 246.525 613.603 252.912C 627.653 258.979 639.628 267.442 649.528 278.299C 659.427 289.156 666.931 301.93 672.041 316.619C 677.15 331.308 679.705 347.115 679.705 364.04C 679.705 380.965 676.99 396.772 671.562 411.461C 666.133 426.15 658.469 438.924 648.57 449.781C 638.99 460.638 627.334 469.26 613.603 475.647C 599.871 481.714 584.863 484.748 568.577 484.748C 557.719 484.748 548.139 483.63 539.837 481.395C 531.534 479.16 524.189 476.286 517.803 472.773C 511.416 469.26 505.987 465.588 501.517 461.756C 497.046 457.605 493.374 453.613 490.5 449.781L 489.063 449.781L 489.063 588.212L 431.583 588.212L 431.583 249.08ZM 622.225 364.04C 622.225 355.099 620.628 346.477 617.435 338.174C 614.561 329.871 610.09 322.527 604.023 316.14C 598.275 309.753 591.249 304.644 582.947 300.812C 574.644 296.98 565.224 295.064 554.686 295.064C 544.148 295.064 534.727 296.98 526.425 300.812C 518.122 304.644 510.937 309.753 504.87 316.14C 499.122 322.527 494.651 329.871 491.458 338.174C 488.584 346.477 487.147 355.099 487.147 364.04C 487.147 372.981 488.584 381.603 491.458 389.906C 494.651 398.209 499.122 405.553 504.87 411.94C 510.937 418.327 518.122 423.436 526.425 427.268C 534.727 431.1 544.148 433.016 554.686 433.016C 565.224 433.016 574.644 431.1 582.947 427.268C 591.249 423.436 598.275 418.327 604.023 411.94C 610.09 405.553 614.561 398.209 617.435 389.906C 620.628 381.603 622.225 372.981 622.225 364.04ZM 779.281 384.158C 781.197 401.402 787.903 414.814 799.399 424.394C 810.895 433.974 824.786 438.764 841.072 438.764C 855.442 438.764 867.417 435.89 876.997 430.142C 886.896 424.075 895.518 416.57 902.863 407.629L 944.057 438.764C 930.645 455.369 915.636 467.185 899.031 474.21C 882.425 481.235 865.022 484.748 846.82 484.748C 829.576 484.748 813.29 481.874 797.962 476.126C 782.634 470.378 769.381 462.235 758.205 451.697C 747.028 441.159 738.087 428.545 731.381 413.856C 724.994 398.847 721.801 382.242 721.801 364.04C 721.801 345.838 724.994 329.392 731.381 314.703C 738.087 299.694 747.028 286.921 758.205 276.383C 769.381 265.845 782.634 257.702 797.962 251.954C 813.29 246.206 829.576 243.332 846.82 243.332C 862.786 243.332 877.316 246.206 890.409 251.954C 903.821 257.383 915.157 265.366 924.418 275.904C 933.998 286.442 941.342 299.535 946.452 315.182C 951.88 330.51 954.595 348.233 954.595 368.351L 954.595 384.158L 779.281 384.158ZM 897.115 341.048C 896.795 324.123 891.526 310.871 881.308 301.291C 871.089 291.392 856.879 286.442 838.677 286.442C 821.433 286.442 807.701 291.392 797.483 301.291C 787.583 311.19 781.516 324.443 779.281 341.048L 897.115 341.048ZM 1008.35 249.08L 1062.95 249.08L 1062.95 285.963L 1063.91 285.963C 1069.34 274.467 1077.64 264.568 1088.82 256.265C 1100 247.643 1115.16 243.332 1134.32 243.332C 1149.65 243.332 1162.59 245.887 1173.12 250.996C 1183.98 256.105 1192.76 262.811 1199.47 271.114C 1206.17 279.417 1210.96 288.997 1213.84 299.854C 1216.71 310.711 1218.15 322.048 1218.15 333.863L 1218.15 479L 1160.67 479L 1160.67 362.603C 1160.67 356.216 1160.35 349.191 1159.71 341.527C 1159.07 333.544 1157.32 326.199 1154.44 319.493C 1151.89 312.468 1147.74 306.72 1141.99 302.249C 1136.24 297.459 1128.42 295.064 1118.52 295.064C 1108.94 295.064 1100.79 296.661 1094.09 299.854C 1087.7 303.047 1082.27 307.358 1077.8 312.787C 1073.65 318.216 1070.62 324.443 1068.7 331.468C 1066.79 338.493 1065.83 345.838 1065.83 353.502L 1065.83 479L 1008.35 479L 1008.35 249.08ZM 1596.62 212.676C 1590.23 203.415 1581.61 196.709 1570.75 192.558C 1560.21 188.087 1549.03 185.852 1537.22 185.852C 1530.19 185.852 1523.33 186.65 1516.62 188.247C 1510.24 189.844 1504.33 192.398 1498.9 195.911C 1493.79 199.424 1489.64 204.054 1486.45 209.802C 1483.25 215.231 1481.66 221.777 1481.66 229.441C 1481.66 240.937 1485.65 249.719 1493.63 255.786C 1501.61 261.853 1511.51 267.122 1523.33 271.593C 1535.14 276.064 1548.08 280.375 1562.13 284.526C 1576.18 288.677 1589.11 294.425 1600.93 301.77C 1612.74 309.115 1622.64 318.854 1630.62 330.989C 1638.61 343.124 1642.6 359.25 1642.6 379.368C 1642.6 397.57 1639.25 413.537 1632.54 427.268C 1625.83 440.68 1616.73 451.857 1605.24 460.798C 1594.06 469.739 1580.97 476.445 1565.96 480.916C 1550.95 485.387 1535.14 487.622 1518.54 487.622C 1497.46 487.622 1477.18 484.109 1457.71 477.084C 1438.23 470.059 1421.46 458.243 1407.41 441.638L 1452.92 397.57C 1460.26 408.747 1469.84 417.528 1481.66 423.915C 1493.79 429.982 1506.56 433.016 1519.98 433.016C 1527 433.016 1534.03 432.058 1541.05 430.142C 1548.08 428.226 1554.46 425.352 1560.21 421.52C 1565.96 417.688 1570.59 412.898 1574.1 407.15C 1577.62 401.083 1579.37 394.217 1579.37 386.553C 1579.37 374.099 1575.38 364.519 1567.4 357.813C 1559.41 351.107 1549.51 345.519 1537.7 341.048C 1525.88 336.258 1512.95 331.787 1498.9 327.636C 1484.85 323.485 1471.92 317.896 1460.1 310.871C 1448.29 303.526 1438.39 293.946 1430.4 282.131C 1422.42 269.996 1418.43 253.87 1418.43 233.752C 1418.43 216.189 1421.94 201.02 1428.97 188.247C 1436.31 175.474 1445.73 164.936 1457.23 156.633C 1469.04 148.011 1482.45 141.624 1497.46 137.473C 1512.47 133.322 1527.8 131.246 1543.45 131.246C 1561.33 131.246 1578.57 133.96 1595.18 139.389C 1612.1 144.818 1627.27 153.759 1640.68 166.213L 1596.62 212.676ZM 1688.69 364.04C 1688.69 345.838 1691.88 329.392 1698.27 314.703C 1704.97 299.694 1713.92 286.921 1725.09 276.383C 1736.27 265.845 1749.52 257.702 1764.85 251.954C 1780.18 246.206 1796.46 243.332 1813.71 243.332C 1830.95 243.332 1847.24 246.206 1862.57 251.954C 1877.89 257.702 1891.15 265.845 1902.32 276.383C 1913.5 286.921 1922.28 299.694 1928.67 314.703C 1935.37 329.392 1938.73 345.838 1938.73 364.04C 1938.73 382.242 1935.37 398.847 1928.67 413.856C 1922.28 428.545 1913.5 441.159 1902.32 451.697C 1891.15 462.235 1877.89 470.378 1862.57 476.126C 1847.24 481.874 1830.95 484.748 1813.71 484.748C 1796.46 484.748 1780.18 481.874 1764.85 476.126C 1749.52 470.378 1736.27 462.235 1725.09 451.697C 1713.92 441.159 1704.97 428.545 1698.27 413.856C 1691.88 398.847 1688.69 382.242 1688.69 364.04ZM 1746.17 364.04C 1746.17 372.981 1747.61 381.603 1750.48 389.906C 1753.67 398.209 1758.14 405.553 1763.89 411.94C 1769.96 418.327 1777.14 423.436 1785.45 427.268C 1793.75 431.1 1803.17 433.016 1813.71 433.016C 1824.25 433.016 1833.67 431.1 1841.97 427.268C 1850.27 423.436 1857.3 418.327 1863.04 411.94C 1869.11 405.553 1873.58 398.209 1876.46 389.906C 1879.65 381.603 1881.25 372.981 1881.25 364.04C 1881.25 355.099 1879.65 346.477 1876.46 338.174C 1873.58 329.871 1869.11 322.527 1863.04 316.14C 1857.3 309.753 1850.27 304.644 1841.97 300.812C 1833.67 296.98 1824.25 295.064 1813.71 295.064C 1803.17 295.064 1793.75 296.98 1785.45 300.812C 1777.14 304.644 1769.96 309.753 1763.89 316.14C 1758.14 322.527 1753.67 329.871 1750.48 338.174C 1747.61 346.477 1746.17 355.099 1746.17 364.04ZM 2202.34 479L 2147.74 479L 2147.74 442.117L 2146.78 442.117C 2141.35 453.613 2133.05 463.672 2121.87 472.294C 2110.7 480.597 2095.53 484.748 2076.37 484.748C 2061.04 484.748 2047.95 482.353 2037.09 477.563C 2026.55 472.454 2017.93 465.748 2011.22 457.445C 2004.52 448.823 1999.73 439.083 1996.85 428.226C 1993.98 417.369 1992.54 406.032 1992.54 394.217L 1992.54 249.08L 2050.02 249.08L 2050.02 365.477C 2050.02 371.864 2050.34 379.049 2050.98 387.032C 2051.62 394.696 2053.22 402.041 2055.77 409.066C 2058.64 415.772 2062.8 421.52 2068.22 426.31C 2073.97 430.781 2081.96 433.016 2092.17 433.016C 2101.75 433.016 2109.74 431.419 2116.12 428.226C 2122.83 425.033 2128.26 420.722 2132.41 415.293C 2136.88 409.864 2140.07 403.637 2141.99 396.612C 2143.91 389.587 2144.86 382.242 2144.86 374.578L 2144.86 249.08L 2202.34 249.08L 2202.34 479ZM 2267.59 249.08L 2325.07 249.08L 2325.07 285.484L 2326.03 285.484C 2332.42 272.072 2341.52 261.694 2353.33 254.349C 2365.15 247.004 2378.72 243.332 2394.05 243.332C 2397.56 243.332 2400.92 243.651 2404.11 244.29C 2407.62 244.929 2411.13 245.727 2414.65 246.685L 2414.65 302.249C 2409.86 300.972 2405.07 300.014 2400.28 299.375C 2395.81 298.417 2391.34 297.938 2386.86 297.938C 2373.45 297.938 2362.6 300.493 2354.29 305.602C 2346.31 310.392 2340.08 315.98 2335.61 322.367C 2331.46 328.754 2328.59 335.14 2326.99 341.527C 2325.71 347.914 2325.07 352.704 2325.07 355.897L 2325.07 479L 2267.59 479L 2267.59 249.08ZM 2606.67 318.056C 2599.96 311.031 2592.94 305.442 2585.59 301.291C 2578.25 297.14 2570.74 295.064 2563.08 295.064C 2552.54 295.064 2543.12 296.98 2534.82 300.812C 2526.52 304.644 2519.33 309.753 2513.26 316.14C 2507.52 322.527 2503.05 329.871 2499.85 338.174C 2496.98 346.477 2495.54 355.099 2495.54 364.04C 2495.54 372.981 2496.98 381.603 2499.85 389.906C 2503.05 398.209 2507.52 405.553 2513.26 411.94C 2519.33 418.327 2526.52 423.436 2534.82 427.268C 2543.12 431.1 2552.54 433.016 2563.08 433.016C 2572.02 433.016 2580.32 431.26 2587.99 427.747C 2595.65 423.915 2602.2 418.486 2607.63 411.461L 2645.95 452.655C 2640.2 458.403 2633.49 463.353 2625.83 467.504C 2618.48 471.655 2610.98 475.008 2603.32 477.563C 2595.65 480.118 2588.31 481.874 2581.28 482.832C 2574.26 484.109 2568.19 484.748 2563.08 484.748C 2545.84 484.748 2529.55 481.874 2514.22 476.126C 2498.89 470.378 2485.64 462.235 2474.47 451.697C 2463.29 441.159 2454.35 428.545 2447.64 413.856C 2441.25 398.847 2438.06 382.242 2438.06 364.04C 2438.06 345.838 2441.25 329.392 2447.64 314.703C 2454.35 299.694 2463.29 286.921 2474.47 276.383C 2485.64 265.845 2498.89 257.702 2514.22 251.954C 2529.55 246.206 2545.84 243.332 2563.08 243.332C 2577.77 243.332 2592.46 246.206 2607.15 251.954C 2622.16 257.383 2635.25 266.164 2646.43 278.299L 2606.67 318.056ZM 2722.41 384.158C 2724.33 401.402 2731.03 414.814 2742.53 424.394C 2754.03 433.974 2767.92 438.764 2784.2 438.764C 2798.57 438.764 2810.55 435.89 2820.13 430.142C 2830.03 424.075 2838.65 416.57 2845.99 407.629L 2887.19 438.764C 2873.78 455.369 2858.77 467.185 2842.16 474.21C 2825.56 481.235 2808.15 484.748 2789.95 484.748C 2772.71 484.748 2756.42 481.874 2741.09 476.126C 2725.76 470.378 2712.51 462.235 2701.34 451.697C 2690.16 441.159 2681.22 428.545 2674.51 413.856C 2668.12 398.847 2664.93 382.242 2664.93 364.04C 2664.93 345.838 2668.12 329.392 2674.51 314.703C 2681.22 299.694 2690.16 286.921 2701.34 276.383C 2712.51 265.845 2725.76 257.702 2741.09 251.954C 2756.42 246.206 2772.71 243.332 2789.95 243.332C 2805.92 243.332 2820.45 246.206 2833.54 251.954C 2846.95 257.383 2858.29 265.366 2867.55 275.904C 2877.13 286.442 2884.47 299.535 2889.58 315.182C 2895.01 330.51 2897.73 348.233 2897.73 368.351L 2897.73 384.158L 2722.41 384.158ZM 2840.25 341.048C 2839.93 324.123 2834.66 310.871 2824.44 301.291C 2814.22 291.392 2800.01 286.442 2781.81 286.442C 2764.56 286.442 2750.83 291.392 2740.61 301.291C 2730.71 311.19 2724.65 324.443 2722.41 341.048L 2840.25 341.048Z"/>
</defs>
</svg>
